<?xml version="1.0" encoding="UTF-8" standalone="no"?>
<svg
   xmlns:dc="http://purl.org/dc/elements/1.1/"
   xmlns:cc="http://creativecommons.org/ns#"
   xmlns:rdf="http://www.w3.org/1999/02/22-rdf-syntax-ns#"
   xmlns:svg="http://www.w3.org/2000/svg"
   xmlns="http://www.w3.org/2000/svg"
   xmlns:xlink="http://www.w3.org/1999/xlink"
   xmlns:sodipodi="http://sodipodi.sourceforge.net/DTD/sodipodi-0.dtd"
   xmlns:inkscape="http://www.inkscape.org/namespaces/inkscape"
   width="400.10361mm"
   height="76.029015mm"
   viewBox="0 0 400.1036 76.029015"
   version="1.1"
   id="svg3634"
   inkscape:version="1.0.1 (3bc2e813f5, 2020-09-07)"
   sodipodi:docname="logo-white.svg">
  <defs
     id="defs3628">
    <linearGradient
       inkscape:collect="always"
       id="linearGradient886">
      <stop
         style="stop-color:#ca45b4;stop-opacity:1"
         offset="0"
         id="stop882" />
      <stop
         style="stop-color:#4b47b8;stop-opacity:1"
         offset="0.53474325"
         id="stop892" />
      <stop
         style="stop-color:#2f286a;stop-opacity:1"
         offset="1"
         id="stop890" />
    </linearGradient>
    <linearGradient
       inkscape:collect="always"
       xlink:href="#linearGradient886"
       id="linearGradient888"
       x1="-77.068825"
       y1="61.109753"
       x2="-11.111977"
       y2="61.109753"
       gradientUnits="userSpaceOnUse" />
  </defs>
  <sodipodi:namedview
     id="base"
     pagecolor="#ffffff"
     bordercolor="#666666"
     borderopacity="1.0"
     inkscape:pageopacity="0.0"
     inkscape:pageshadow="2"
     inkscape:zoom="0.35"
     inkscape:cx="925.25956"
     inkscape:cy="39.086173"
     inkscape:document-units="mm"
     inkscape:current-layer="text877-9-7-9-3-8-2-52-5"
     inkscape:document-rotation="0"
     showgrid="false"
     fit-margin-top="0"
     fit-margin-left="0"
     fit-margin-right="0"
     fit-margin-bottom="0"
     inkscape:window-width="1920"
     inkscape:window-height="1009"
     inkscape:window-x="1912"
     inkscape:window-y="-8"
     inkscape:window-maximized="1" />
  <metadata
     id="metadata3631">
    <rdf:RDF>
      <cc:Work
         rdf:about="">
        <dc:format>image/svg+xml</dc:format>
        <dc:type
           rdf:resource="http://purl.org/dc/dcmitype/StillImage" />
        <dc:title></dc:title>
      </cc:Work>
    </rdf:RDF>
  </metadata>
  <g
     inkscape:label="Layer 1"
     inkscape:groupmode="layer"
     id="layer1"
     transform="translate(99.32829,-95.260636)">
    <g
       id="g905"
       style="fill:#2a78cb;fill-opacity:1"
       transform="translate(-18.250305,148.61107)">
      <g
         id="g920"
         style="fill:#2a78cb;fill-opacity:1">
        <ellipse
           style="opacity:1;fill:#2a78cb;fill-opacity:1;stroke:none;stroke-width:0.275901;stroke-opacity:1"
           id="path1445-71-8-0-1"
           cx="-38.854317"
           cy="-25.244688"
           rx="7.989594"
           ry="14.226201" />
        <ellipse
           style="opacity:1;fill:#2a78cb;fill-opacity:1;stroke:none;stroke-width:0.195354;stroke-opacity:1"
           id="path1445-7-0-0-3-5"
           cx="-58.450836"
           cy="-24.576597"
           rx="6.6627436"
           ry="8.5526247" />
        <ellipse
           style="opacity:1;fill:#2a78cb;fill-opacity:1;stroke:none;stroke-width:0.189732;stroke-opacity:1"
           id="path1445-7-8-0-3-8-9"
           cx="-18.862173"
           cy="-24.442808"
           rx="6.2847676"
           ry="8.5526247" />
        <circle
           style="opacity:1;fill:#2a78cb;fill-opacity:1;stroke:none;stroke-width:0.127958;stroke-opacity:1"
           id="path1445-7-1-1-6-6-5"
           cx="-1.8421029"
           cy="-24.710142"
           r="4.9444861" />
        <circle
           style="opacity:1;fill:#2a78cb;fill-opacity:1;stroke:none;stroke-width:0.127958;stroke-opacity:1"
           id="path1445-7-1-9-8-6-2-3"
           cx="-76.133499"
           cy="-24.843809"
           r="4.9444861" />
      </g>
    </g>
    <g
       aria-label="wlcome.ai"
       id="text877-9-7-9-3-8-2-52-5"
       style="font-style:normal;font-variant:normal;font-weight:normal;font-stretch:normal;font-size:64.7877px;line-height:1.25;font-family:Gilroy-Bold;-inkscape-font-specification:Gilroy-Bold;fill:#2e2e2e;fill-opacity:1;stroke:none;stroke-width:1.61971"
       transform="translate(-30.104498,22.150137)">
      <path
         d="m 71.535124,88.011669 h 8.875915 L 70.109795,120.40552 H 62.140908 L 56.18044,100.77485 50.219972,120.40552 H 42.251085 L 31.949842,88.011669 h 8.875914 l 5.506954,19.889821 5.895681,-19.889821 h 7.904099 l 5.89568,19.954611 z"
         style="font-style:normal;font-variant:normal;font-weight:normal;font-stretch:normal;font-family:Gilroy-Bold;-inkscape-font-specification:Gilroy-Bold;fill:#f6f6f6;fill-opacity:1;stroke-width:1.61971"
         id="path4815-5" />
      <path
         d="M 84.946084,120.40552 V 73.110499 h 8.357613 v 47.295021 z"
         style="font-style:normal;font-variant:normal;font-weight:normal;font-stretch:normal;font-family:Gilroy-Bold;-inkscape-font-specification:Gilroy-Bold;fill:#f6f6f6;fill-opacity:1;stroke-width:1.61971"
         id="path4817-0" />
      <path
         d="m 116.3681,121.31255 q -7.32101,0 -12.24487,-4.92387 -4.859082,-4.92386 -4.859082,-12.18009 0,-7.256219 4.859082,-12.180084 4.92386,-4.923865 12.24487,-4.923865 4.7295,0 8.61676,2.26757 3.88727,2.267569 5.89568,6.090043 l -7.19143,4.211201 q -0.97182,-2.008419 -2.98023,-3.174598 -1.94364,-1.166178 -4.40557,-1.166178 -3.75768,0 -6.21962,2.52672 -2.46193,2.461931 -2.46193,6.349191 0,3.82248 2.46193,6.3492 2.46194,2.46193 6.21962,2.46193 2.52672,0 4.47035,-1.10139 2.00842,-1.16618 2.98024,-3.1746 l 7.25622,4.14641 q -2.13799,3.82248 -6.02526,6.15484 -3.88726,2.26757 -8.61676,2.26757 z"
         style="font-style:normal;font-variant:normal;font-weight:normal;font-stretch:normal;font-family:Gilroy-Bold;-inkscape-font-specification:Gilroy-Bold;fill:#f6f6f6;fill-opacity:1;stroke-width:1.61971"
         id="path4819-8" />
      <path
         d="m 162.49683,116.38868 q -4.98866,4.92387 -12.18009,4.92387 -7.19144,0 -12.18009,-4.92387 -4.92386,-4.98865 -4.92386,-12.18009 0,-7.191431 4.92386,-12.115296 4.98865,-4.988653 12.18009,-4.988653 7.19143,0 12.18009,4.988653 4.98865,4.923865 4.98865,12.115296 0,7.19144 -4.98865,12.18009 z m -18.4645,-5.7661 q 2.52672,2.52672 6.28441,2.52672 3.75769,0 6.28441,-2.52672 2.52672,-2.52672 2.52672,-6.41399 0,-3.88726 -2.52672,-6.413979 -2.52672,-2.52672 -6.28441,-2.52672 -3.75769,0 -6.28441,2.52672 -2.46193,2.526719 -2.46193,6.413979 0,3.88727 2.46193,6.41399 z"
         style="font-style:normal;font-variant:normal;font-weight:normal;font-stretch:normal;font-family:Gilroy-Bold;-inkscape-font-specification:Gilroy-Bold;fill:#f6f6f6;fill-opacity:1;stroke-width:1.61971"
         id="path4821-4" />
      <path
         d="m 209.20875,87.104641 q 5.57174,0 8.87591,3.628111 3.36896,3.628111 3.36896,9.718158 v 19.95461 h -8.35761 V 101.034 q 0,-2.91545 -1.42533,-4.535143 -1.42533,-1.619692 -4.01683,-1.619692 -2.85066,0 -4.47036,1.878843 -1.5549,1.878843 -1.5549,5.442162 v 18.20535 h -8.35761 V 101.034 q 0,-2.91545 -1.42533,-4.535143 -1.42533,-1.619692 -4.01684,-1.619692 -2.78587,0 -4.47035,1.878843 -1.61969,1.878843 -1.61969,5.442162 v 18.20535 h -8.35762 V 88.011669 h 8.35762 v 3.433748 q 2.91544,-4.340776 9.00549,-4.340776 5.96046,0 8.81112,4.664715 3.23939,-4.664715 9.65337,-4.664715 z"
         style="font-style:normal;font-variant:normal;font-weight:normal;font-stretch:normal;font-family:Gilroy-Bold;-inkscape-font-specification:Gilroy-Bold;fill:#f6f6f6;fill-opacity:1;stroke-width:1.61971"
         id="path4823-1" />
      <path
         d="m 235.64208,107.64234 q 1.68448,6.09004 9.13506,6.09004 4.79429,0 7.25623,-3.23938 l 6.73792,3.88726 q -4.79429,6.93229 -14.12372,6.93229 -8.03368,0 -12.89275,-4.85908 -4.85908,-4.85908 -4.85908,-12.24488 0,-7.321006 4.79429,-12.180084 4.79429,-4.923865 12.30966,-4.923865 7.12665,0 11.72657,4.923865 4.66472,4.923865 4.66472,12.180084 0,1.6197 -0.32394,3.43375 z m -0.12958,-6.47877 h 16.52087 q -0.71267,-3.304171 -2.98024,-4.923863 -2.20278,-1.619693 -5.05344,-1.619693 -3.36896,0 -5.57174,1.749268 -2.20278,1.68448 -2.91545,4.794288 z"
         style="font-style:normal;font-variant:normal;font-weight:normal;font-stretch:normal;font-family:Gilroy-Bold;-inkscape-font-specification:Gilroy-Bold;fill:#f6f6f6;fill-opacity:1;stroke-width:1.61971"
         id="path4825-8" />
      <g
         id="g936">
        <path
           d="m 274.96818,119.62807 q -1.6197,1.61969 -3.88727,1.61969 -2.26757,0 -3.88726,-1.61969 -1.61969,-1.6197 -1.61969,-3.88727 0,-2.26757 1.61969,-3.88726 1.61969,-1.61969 3.88726,-1.61969 2.26757,0 3.88727,1.61969 1.61969,1.61969 1.61969,3.88726 0,2.26757 -1.61969,3.88727 z"
           style="fill:#2a78cb;fill-opacity:1;stroke-width:1.61971"
           id="path4827-3" />
        <path
           d="m 305.61268,88.011669 h 8.35761 v 32.393851 h -8.35761 v -3.82248 q -3.75769,4.72951 -10.5604,4.72951 -6.47877,0 -11.14348,-4.92387 -4.59993,-4.98865 -4.59993,-12.18009 0,-7.191431 4.59993,-12.115296 4.66471,-4.988653 11.14348,-4.988653 6.80271,0 10.5604,4.729502 z M 290.1932,110.81694 q 2.52672,2.52672 6.41399,2.52672 3.88726,0 6.41398,-2.52672 2.59151,-2.59151 2.59151,-6.60835 0,-4.01683 -2.59151,-6.543554 -2.52672,-2.591508 -6.41398,-2.591508 -3.88727,0 -6.41399,2.591508 -2.52672,2.526724 -2.52672,6.543554 0,4.01684 2.52672,6.60835 z"
           style="fill:#2a78cb;fill-opacity:1;stroke-width:1.61971"
           id="path4829-8" />
        <path
           d="m 325.69682,84.124407 q -2.07321,0 -3.62811,-1.490117 -1.49012,-1.554904 -1.49012,-3.628111 0,-2.073206 1.49012,-3.628111 1.5549,-1.554904 3.62811,-1.554904 2.13799,0 3.62811,1.554904 1.5549,1.554905 1.5549,3.628111 0,2.073207 -1.5549,3.628111 -1.49012,1.490117 -3.62811,1.490117 z M 321.5504,120.40552 V 88.011669 h 8.35762 v 32.393851 z"
           style="fill:#2a78cb;fill-opacity:1;stroke-width:1.61971"
           id="path4831-6" />
      </g>
    </g>
    <g
       aria-label="your apartment's voice"
       id="text877-9-7-9-3-8-2-5-8-2"
       style="font-style:normal;font-variant:normal;font-weight:normal;font-stretch:normal;font-size:19.4013px;line-height:1.25;font-family:Gilroy-Light;-inkscape-font-specification:Gilroy-Light;fill:#f6f6f6;fill-opacity:1;stroke:none;stroke-width:0.485037"
       transform="translate(-30.104498,22.150137)">
      <path
         d="m 135.58192,135.5485 h 1.35809 l -4.15188,10.59311 q -0.56264,1.43569 -1.61031,2.25055 -1.02827,0.83425 -2.30875,0.73725 v -1.20289 q 1.74611,0.19402 2.65797,-2.01773 l 0.25222,-0.60144 -4.34589,-9.75885 h 1.35809 l 3.64745,8.12914 z"
         style="font-style:normal;font-variant:normal;font-weight:normal;font-stretch:normal;font-family:Gilroy-Regular;-inkscape-font-specification:Gilroy-Regular;fill:#f6f6f6;fill-opacity:1;stroke-width:0.485037"
         id="path4834-2" />
      <path
         d="m 146.23319,144.02686 q -1.4745,1.4551 -3.60864,1.4551 -2.13415,0 -3.62805,-1.4551 -1.4745,-1.4745 -1.4745,-3.62804 0,-2.15354 1.4745,-3.60864 1.4939,-1.4745 3.62805,-1.4745 2.13414,0 3.60864,1.4745 1.4939,1.4551 1.4939,3.60864 0,2.15354 -1.4939,3.62804 z m -6.32483,-0.89246 q 1.10588,1.10588 2.71619,1.10588 1.6103,0 2.71618,-1.10588 1.10587,-1.12527 1.10587,-2.73558 0,-1.61031 -1.10587,-2.71618 -1.10588,-1.12528 -2.71618,-1.12528 -1.61031,0 -2.71619,1.12528 -1.10587,1.10587 -1.10587,2.71618 0,1.61031 1.10587,2.73558 z"
         style="font-style:normal;font-variant:normal;font-weight:normal;font-stretch:normal;font-family:Gilroy-Regular;-inkscape-font-specification:Gilroy-Regular;fill:#f6f6f6;fill-opacity:1;stroke-width:0.485037"
         id="path4836-2" />
      <path
         d="m 156.69047,135.5485 h 1.28049 v 9.70065 h -1.28049 v -1.51331 q -1.08647,1.74612 -3.25942,1.74612 -1.76552,0 -2.79379,-1.06707 -1.00886,-1.08647 -1.00886,-2.9102 v -5.95619 h 1.28048 v 5.95619 q 0,1.29989 0.67905,2.01774 0.69844,0.71785 1.95953,0.71785 1.39689,0 2.26995,-0.87306 0.87306,-0.89246 0.87306,-2.73558 z"
         style="font-style:normal;font-variant:normal;font-weight:normal;font-stretch:normal;font-family:Gilroy-Regular;-inkscape-font-specification:Gilroy-Regular;fill:#f6f6f6;fill-opacity:1;stroke-width:0.485037"
         id="path4838-4" />
      <path
         d="m 161.9676,137.1588 q 0.89246,-1.76552 3.0654,-1.76552 v 1.24169 q -1.31928,0 -2.19234,0.77605 -0.87306,0.77605 -0.87306,2.44456 v 5.39357 h -1.28049 v -9.70065 h 1.28049 z"
         style="font-style:normal;font-variant:normal;font-weight:normal;font-stretch:normal;font-family:Gilroy-Regular;-inkscape-font-specification:Gilroy-Regular;fill:#f6f6f6;fill-opacity:1;stroke-width:0.485037"
         id="path4840-5" />
      <path
         d="m 179.97195,135.5485 h 1.28049 v 9.70065 h -1.28049 v -1.90133 q -1.33869,2.13414 -3.91906,2.13414 -2.07594,0 -3.55044,-1.4745 -1.4551,-1.4745 -1.4551,-3.60864 0,-2.13414 1.4551,-3.60864 1.4745,-1.4745 3.55044,-1.4745 2.58037,0 3.91906,2.13414 z m -6.53824,7.5859 q 1.10588,1.10588 2.71619,1.10588 1.6103,0 2.71618,-1.10588 1.10587,-1.12527 1.10587,-2.73558 0,-1.61031 -1.10587,-2.71618 -1.10588,-1.12528 -2.71618,-1.12528 -1.61031,0 -2.71619,1.12528 -1.10587,1.10587 -1.10587,2.71618 0,1.61031 1.10587,2.73558 z"
         style="font-style:normal;font-variant:normal;font-weight:normal;font-stretch:normal;font-family:Gilroy-Regular;-inkscape-font-specification:Gilroy-Regular;fill:#f6f6f6;fill-opacity:1;stroke-width:0.485037"
         id="path4842-1" />
      <path
         d="m 189.16816,135.31568 q 2.07594,0 3.53104,1.4745 1.4745,1.4745 1.4745,3.60864 0,2.13414 -1.4745,3.60864 -1.4551,1.4745 -3.53104,1.4745 -2.58037,0 -3.91906,-2.13414 v 5.78159 h -1.28049 V 135.5485 h 1.28049 v 1.90132 q 1.33869,-2.13414 3.91906,-2.13414 z m -2.81319,7.81872 q 1.10588,1.10588 2.71619,1.10588 1.6103,0 2.71618,-1.10588 1.10587,-1.12527 1.10587,-2.73558 0,-1.61031 -1.10587,-2.71618 -1.10588,-1.12528 -2.71618,-1.12528 -1.61031,0 -2.71619,1.12528 -1.10587,1.10587 -1.10587,2.71618 0,1.61031 1.10587,2.73558 z"
         style="font-style:normal;font-variant:normal;font-weight:normal;font-stretch:normal;font-family:Gilroy-Regular;-inkscape-font-specification:Gilroy-Regular;fill:#f6f6f6;fill-opacity:1;stroke-width:0.485037"
         id="path4844-6" />
      <path
         d="m 204.6504,135.5485 h 1.28048 v 9.70065 h -1.28048 v -1.90133 q -1.33869,2.13414 -3.91907,2.13414 -2.07594,0 -3.55044,-1.4745 -1.45509,-1.4745 -1.45509,-3.60864 0,-2.13414 1.45509,-3.60864 1.4745,-1.4745 3.55044,-1.4745 2.58038,0 3.91907,2.13414 z m -6.53824,7.5859 q 1.10587,1.10588 2.71618,1.10588 1.61031,0 2.71618,-1.10588 1.10588,-1.12527 1.10588,-2.73558 0,-1.61031 -1.10588,-2.71618 -1.10587,-1.12528 -2.71618,-1.12528 -1.61031,0 -2.71618,1.12528 -1.10588,1.10587 -1.10588,2.71618 0,1.61031 1.10588,2.73558 z"
         style="font-style:normal;font-variant:normal;font-weight:normal;font-stretch:normal;font-family:Gilroy-Regular;-inkscape-font-specification:Gilroy-Regular;fill:#f6f6f6;fill-opacity:1;stroke-width:0.485037"
         id="path4846-3" />
      <path
         d="m 209.92754,137.1588 q 0.89246,-1.76552 3.06541,-1.76552 v 1.24169 q -1.31929,0 -2.19235,0.77605 -0.87306,0.77605 -0.87306,2.44456 v 5.39357 h -1.28049 v -9.70065 h 1.28049 z"
         style="font-style:normal;font-variant:normal;font-weight:normal;font-stretch:normal;font-family:Gilroy-Regular;-inkscape-font-specification:Gilroy-Regular;fill:#f6f6f6;fill-opacity:1;stroke-width:0.485037"
         id="path4848-3" />
      <path
         d="m 220.07437,136.79018 h -2.79379 v 5.87859 q 0,0.79546 0.31043,1.14468 0.31042,0.32982 0.93126,0.34922 0.62084,0 1.5521,-0.0388 v 1.12528 q -2.03713,0.31042 -3.0654,-0.29102 -1.00887,-0.60144 -1.00887,-2.28936 v -5.87859 h -2.03714 v -1.24168 h 2.03714 v -2.32816 l 1.28048,-0.38803 v 2.71619 h 2.79379 z"
         style="font-style:normal;font-variant:normal;font-weight:normal;font-stretch:normal;font-family:Gilroy-Regular;-inkscape-font-specification:Gilroy-Regular;fill:#f6f6f6;fill-opacity:1;stroke-width:0.485037"
         id="path4850-1" />
      <path
         d="m 232.54937,135.31568 q 1.62971,0 2.61918,1.04767 1.00886,1.04767 1.00886,2.83259 v 6.05321 h -1.28048 v -6.05321 q 0,-1.26108 -0.65965,-1.94013 -0.64024,-0.69845 -1.70731,-0.69845 -1.20288,0 -1.95953,0.81486 -0.73725,0.79545 -0.73725,2.50277 v 5.37416 h -1.28049 v -6.05321 q 0,-1.28049 -0.62084,-1.95953 -0.60144,-0.67905 -1.64911,-0.67905 -1.16408,0 -1.97893,0.81486 -0.81486,0.81485 -0.81486,2.50277 v 5.37416 h -1.28048 v -9.70065 h 1.28048 v 1.41629 q 1.04767,-1.64911 2.9684,-1.64911 2.09534,0 2.949,1.76552 1.04767,-1.76552 3.14301,-1.76552 z"
         style="font-style:normal;font-variant:normal;font-weight:normal;font-stretch:normal;font-family:Gilroy-Regular;-inkscape-font-specification:Gilroy-Regular;fill:#f6f6f6;fill-opacity:1;stroke-width:0.485037"
         id="path4852-5" />
      <path
         d="m 243.14247,135.31568 q 2.15355,0 3.47284,1.5327 1.33868,1.5133 1.33868,3.58924 0,0.21342 -0.0388,0.60144 h -8.51717 q 0.19401,1.4745 1.24168,2.34756 1.06708,0.85366 2.61918,0.85366 1.10587,0 1.90133,-0.44623 0.81485,-0.46563 1.22228,-1.20288 l 1.12527,0.65964 q -0.64024,1.02827 -1.74611,1.62971 -1.10588,0.60144 -2.52217,0.60144 -2.28935,0 -3.72505,-1.4357 -1.4357,-1.43569 -1.4357,-3.64744 0,-2.17295 1.4163,-3.62804 1.41629,-1.4551 3.64744,-1.4551 z m 0,1.24168 q -1.5133,0 -2.54157,0.91186 -1.00887,0.89246 -1.20288,2.32816 h 7.23669 q -0.19402,-1.5327 -1.18348,-2.38636 -0.98947,-0.85366 -2.30876,-0.85366 z"
         style="font-style:normal;font-variant:normal;font-weight:normal;font-stretch:normal;font-family:Gilroy-Regular;-inkscape-font-specification:Gilroy-Regular;fill:#f6f6f6;fill-opacity:1;stroke-width:0.485037"
         id="path4854-5" />
      <path
         d="m 254.53103,135.31568 q 1.76552,0 2.77439,1.08647 1.02826,1.06707 1.02826,2.8908 v 5.9562 h -1.28048 v -5.9562 q 0,-1.29989 -0.69845,-2.01774 -0.67904,-0.71785 -1.94013,-0.71785 -1.39689,0 -2.26995,0.89246 -0.87306,0.87306 -0.87306,2.71618 v 5.08315 h -1.28049 v -9.70065 h 1.28049 v 1.5133 q 1.08647,-1.74612 3.25942,-1.74612 z"
         style="font-style:normal;font-variant:normal;font-weight:normal;font-stretch:normal;font-family:Gilroy-Regular;-inkscape-font-specification:Gilroy-Regular;fill:#f6f6f6;fill-opacity:1;stroke-width:0.485037"
         id="path4856-5" />
      <path
         d="m 265.95837,136.79018 h -2.79379 v 5.87859 q 0,0.79546 0.31042,1.14468 0.31042,0.32982 0.93126,0.34922 0.62084,0 1.55211,-0.0388 v 1.12528 q -2.03714,0.31042 -3.06541,-0.29102 -1.00887,-0.60144 -1.00887,-2.28936 v -5.87859 h -2.03713 v -1.24168 h 2.03713 v -2.32816 l 1.28049,-0.38803 v 2.71619 h 2.79379 z"
         style="font-style:normal;font-variant:normal;font-weight:normal;font-stretch:normal;font-family:Gilroy-Regular;-inkscape-font-specification:Gilroy-Regular;fill:#f6f6f6;fill-opacity:1;stroke-width:0.485037"
         id="path4858-6" />
      <path
         d="m 268.09245,135.5485 -0.19402,-3.88026 h 1.35809 l -0.19401,3.88026 z"
         style="font-style:normal;font-variant:normal;font-weight:normal;font-stretch:normal;font-family:Gilroy-Regular;-inkscape-font-specification:Gilroy-Regular;fill:#f6f6f6;fill-opacity:1;stroke-width:0.485037"
         id="path4860-8" />
      <path
         d="m 271.81744,138.09007 q 0,0.65964 0.58204,1.04767 0.58203,0.38802 1.41629,0.60144 0.83426,0.21341 1.66851,0.48503 0.83426,0.25222 1.4163,0.87306 0.58204,0.60144 0.58204,1.5909 0,1.24169 -0.98947,2.01774 -0.97007,0.77605 -2.52217,0.77605 -1.39689,0 -2.38636,-0.62084 -0.97006,-0.62084 -1.35809,-1.61031 l 1.08647,-0.64024 q 0.27162,0.75665 0.97007,1.20288 0.71785,0.42683 1.68791,0.42683 0.95066,0 1.59091,-0.36863 0.64024,-0.38802 0.64024,-1.18348 0,-0.65964 -0.58204,-1.04767 -0.58204,-0.38802 -1.41629,-0.60144 -0.83426,-0.21341 -1.66852,-0.46563 -0.83425,-0.27162 -1.41629,-0.87306 -0.58204,-0.62084 -0.58204,-1.6103 0,-1.18348 0.93126,-1.97894 0.95067,-0.79545 2.38636,-0.79545 1.18348,0 2.07594,0.54324 0.89246,0.52383 1.31929,1.43569 l -1.06707,0.62084 q -0.56264,-1.35809 -2.32816,-1.35809 -0.83425,0 -1.43569,0.40743 -0.60144,0.38803 -0.60144,1.12528 z"
         style="font-style:normal;font-variant:normal;font-weight:normal;font-stretch:normal;font-family:Gilroy-Regular;-inkscape-font-specification:Gilroy-Regular;fill:#f6f6f6;fill-opacity:1;stroke-width:0.485037"
         id="path4862-3" />
      <path
         d="m 291.45148,135.5485 h 1.3581 l -3.97727,9.70065 h -1.55211 l -3.97726,-9.70065 h 1.35809 l 3.39523,8.36196 z"
         style="font-style:normal;font-variant:normal;font-weight:normal;font-stretch:normal;font-family:Gilroy-Regular;-inkscape-font-specification:Gilroy-Regular;fill:#f6f6f6;fill-opacity:1;stroke-width:0.485037"
         id="path4864-2" />
      <path
         d="m 302.10277,144.02686 q -1.4745,1.4551 -3.60864,1.4551 -2.13415,0 -3.62805,-1.4551 -1.4745,-1.4745 -1.4745,-3.62804 0,-2.15354 1.4745,-3.60864 1.4939,-1.4745 3.62805,-1.4745 2.13414,0 3.60864,1.4745 1.4939,1.4551 1.4939,3.60864 0,2.15354 -1.4939,3.62804 z m -6.32483,-0.89246 q 1.10588,1.10588 2.71619,1.10588 1.6103,0 2.71618,-1.10588 1.10587,-1.12527 1.10587,-2.73558 0,-1.61031 -1.10587,-2.71618 -1.10588,-1.12528 -2.71618,-1.12528 -1.61031,0 -2.71619,1.12528 -1.10587,1.10587 -1.10587,2.71618 0,1.61031 1.10587,2.73558 z"
         style="font-style:normal;font-variant:normal;font-weight:normal;font-stretch:normal;font-family:Gilroy-Regular;-inkscape-font-specification:Gilroy-Regular;fill:#f6f6f6;fill-opacity:1;stroke-width:0.485037"
         id="path4866-8" />
      <path
         d="m 307.03067,133.22034 q -0.27162,0.27162 -0.65965,0.27162 -0.38802,0 -0.65964,-0.27162 -0.27162,-0.27162 -0.27162,-0.65964 0,-0.38803 0.27162,-0.65965 0.27162,-0.27162 0.65964,-0.27162 0.38803,0 0.65965,0.27162 0.27161,0.27162 0.27161,0.65965 0,0.38802 -0.27161,0.65964 z m -1.29989,12.02881 v -9.70065 h 1.28049 v 9.70065 z"
         style="font-style:normal;font-variant:normal;font-weight:normal;font-stretch:normal;font-family:Gilroy-Regular;-inkscape-font-specification:Gilroy-Regular;fill:#f6f6f6;fill-opacity:1;stroke-width:0.485037"
         id="path4868-9" />
      <path
         d="m 314.24794,145.48196 q -2.19235,0 -3.64744,-1.4551 -1.4551,-1.4745 -1.4551,-3.62804 0,-2.15354 1.4551,-3.60864 1.45509,-1.4745 3.64744,-1.4745 1.4357,0 2.58037,0.69845 1.14468,0.67904 1.66852,1.84312 l -1.04767,0.60144 q -0.38803,-0.87306 -1.26109,-1.37749 -0.85366,-0.52384 -1.94013,-0.52384 -1.61031,0 -2.71618,1.12528 -1.10588,1.10587 -1.10588,2.71618 0,1.61031 1.10588,2.73558 1.10587,1.10588 2.71618,1.10588 1.08647,0 1.94013,-0.50444 0.85366,-0.52383 1.33869,-1.39689 l 1.06707,0.62084 q -0.60144,1.16408 -1.76552,1.84313 -1.16407,0.67904 -2.58037,0.67904 z"
         style="font-style:normal;font-variant:normal;font-weight:normal;font-stretch:normal;font-family:Gilroy-Regular;-inkscape-font-specification:Gilroy-Regular;fill:#f6f6f6;fill-opacity:1;stroke-width:0.485037"
         id="path4870-6" />
      <path
         d="m 324.8216,135.31568 q 2.15354,0 3.47283,1.5327 1.33869,1.5133 1.33869,3.58924 0,0.21342 -0.0388,0.60144 h -8.51718 q 0.19402,1.4745 1.24169,2.34756 1.06707,0.85366 2.61917,0.85366 1.10588,0 1.90133,-0.44623 0.81486,-0.46563 1.22228,-1.20288 l 1.12528,0.65964 q -0.64024,1.02827 -1.74612,1.62971 -1.10587,0.60144 -2.52217,0.60144 -2.28935,0 -3.72505,-1.4357 -1.43569,-1.43569 -1.43569,-3.64744 0,-2.17295 1.41629,-3.62804 1.4163,-1.4551 3.64745,-1.4551 z m 0,1.24168 q -1.51331,0 -2.54158,0.91186 -1.00886,0.89246 -1.20288,2.32816 h 7.23669 q -0.19401,-1.5327 -1.18348,-2.38636 -0.98947,-0.85366 -2.30875,-0.85366 z"
         style="font-style:normal;font-variant:normal;font-weight:normal;font-stretch:normal;font-family:Gilroy-Regular;-inkscape-font-specification:Gilroy-Regular;fill:#f6f6f6;fill-opacity:1;stroke-width:0.485037"
         id="path4872-2" />
    </g>
  </g>
</svg>
